<?xml version="1.0" encoding="utf-8"?>
<svg version="1.1" xmlns:xlink="http://www.w3.org/1999/xlink" width="50px" height="40px" xmlns="http://www.w3.org/2000/svg">
  <g transform="matrix(1 0 0 1 -796 -308 )">
    <path d="M 10.8083201685097 10.8382838283828  C 11.4665613480779 10.1782178217822  11.795681937862 9.38173817381738  11.795681937862 8.44884488448845  C 11.795681937862 7.51595159515951  11.4665613480779 6.71947194719472  10.8083201685097 6.05940594059406  C 10.1500789889415 5.3993399339934  9.35580129892926 5.06930693069307  8.42548709847288 5.06930693069307  C 7.4951728980165 5.06930693069307  6.70089520800421 5.3993399339934  6.04265402843602 6.05940594059406  C 5.38441284886783 6.71947194719472  5.05529225908373 7.51595159515951  5.05529225908373 8.44884488448845  C 5.05529225908373 9.38173817381738  5.38441284886783 10.1782178217822  6.04265402843602 10.8382838283828  C 6.70089520800421 11.4983498349835  7.4951728980165 11.8283828382838  8.42548709847288 11.8283828382838  C 9.35580129892926 11.8283828382838  10.1500789889415 11.4983498349835  10.8083201685097 10.8382838283828  Z M 38.9152185360716 21.2541254125413  C 39.5646831665789 21.9405940594059  39.8894154818325 22.7414741474147  39.8894154818325 23.6567656765677  C 39.8894154818325 24.5896589658966  39.5646831665789 25.3817381738174  38.9152185360716 26.03300330033  L 25.9873617693523 39.023102310231  C 25.3027909426014 39.6743674367437  24.5041249780586 40  23.5913638757241 40  C 22.6610496752677 40  21.8711602597859 39.6743674367437  21.2216956292786 39.023102310231  L 2.39599789362823 20.1188118811881  C 1.72898016499912 19.4675467546755  1.16289275057048 18.5786578657866  0.697735650342285 17.4521452145215  C 0.232578550114095 16.3256325632563  0 15.2959295929593  0 14.3630363036304  L 0 3.37953795379538  C 0 2.46424642464246  0.333508864314552 1.67216721672167  1.00052659294365 1.003300330033  C 1.66754432157276 0.334433443344331  2.45743373705459 0  3.37019483938915 0  L 14.3233280674039 0  C 15.2536422678603 0  16.2804985079867 0.23322332233223  17.403896787783 0.699669966996699  C 18.5272950675794 1.16611661166116  19.4225030717922 1.73377337733773  20.0895208004213 2.4026402640264  L 38.9152185360716 21.2541254125413  Z M 49.0258030542391 21.2541254125413  C 49.6752676847464 21.9405940594059  50 22.7414741474147  50 23.6567656765677  C 50 24.5896589658966  49.6752676847464 25.3817381738174  49.0258030542391 26.03300330033  L 36.0979462875197 39.023102310231  C 35.4133754607688 39.6743674367437  34.6147094962261 40  33.7019483938915 40  C 33.0700368615061 40  32.5522204669124 39.8767876787679  32.1484992101106 39.6303630363036  C 31.7447779533088 39.3839383938394  31.2796208530806 38.987898789879  30.753027909426 38.4422442244224  L 43.1279620853081 26.03300330033  C 43.7774267158153 25.3817381738174  44.102159031069 24.5896589658966  44.102159031069 23.6567656765677  C 44.102159031069 22.7414741474147  43.7774267158153 21.9405940594059  43.1279620853081 21.2541254125413  L 24.3022643496577 2.4026402640264  C 23.6352466210286 1.73377337733773  22.7400386168159 1.16611661166116  21.6166403370195 0.699669966996699  C 20.4932420572231 0.23322332233223  19.4663858170967 0  18.5360716166403 0  L 24.4339125855714 0  C 25.3642267860277 0  26.3910830261541 0.23322332233223  27.5144813059505 0.699669966996699  C 28.6378795857469 1.16611661166116  29.5330875899596 1.73377337733773  30.2001053185887 2.4026402640264  L 49.0258030542391 21.2541254125413  Z " fill-rule="nonzero" fill="#8080ff" stroke="none" transform="matrix(1 0 0 1 796 308 )" />
  </g>
</svg>