<?xml version="1.0" encoding="utf-8"?>
<svg version="1.1" xmlns:xlink="http://www.w3.org/1999/xlink" width="50px" height="47px" xmlns="http://www.w3.org/2000/svg">
  <g transform="matrix(1 0 0 1 -279 -301 )">
    <path d="M 13.3333333333333 16.7857142857143  C 13.3333333333333 19.2161458333333  14.0364583333333 21.4542410714286  15.4427083333333 23.5  C 12.6302083333333 23.5874255952381  10.3298611111111 24.7064732142857  8.54166666666667 26.8571428571429  L 5.05208333333333 26.8571428571429  C 3.62847222222222 26.8571428571429  2.43055555555556 26.5030691964286  1.45833333333333 25.794921875  C 0.486111111111111 25.0867745535714  0 24.05078125  0 22.6869419642857  C 0 16.5146949404762  1.07638888888889 13.4285714285714  3.22916666666667 13.4285714285714  C 3.33333333333333 13.4285714285714  3.7109375 13.6121651785714  4.36197916666667 13.9793526785714  C 5.01302083333333 14.3465401785714  5.859375 14.7180989583333  6.90104166666667 15.0940290178571  C 7.94270833333333 15.469959077381  8.97569444444444 15.6579241071429  10 15.6579241071429  C 11.1631944444444 15.6579241071429  12.3177083333333 15.4568452380952  13.4635416666667 15.0546875  C 13.3767361111111 15.7016369047619  13.3333333333333 16.2786458333333  13.3333333333333 16.7857142857143  Z M 43.2421875 37.4924665178571  C 43.3029513888889 38.3754650297619  43.3333333333333 39.2803199404762  43.3333333333333 40.20703125  C 43.3333333333333 42.3052455357143  42.6996527777778 43.9619605654762  41.4322916666667 45.1771763392857  C 40.1649305555556 46.3923921130952  38.4809027777778 47  36.3802083333333 47  L 13.6197916666667 47  C 11.5190972222222 47  9.83506944444445 46.3923921130952  8.56770833333333 45.1771763392857  C 7.30034722222222 43.9619605654762  6.66666666666667 42.3052455357143  6.66666666666667 40.20703125  C 6.66666666666667 39.2803199404762  6.69704861111111 38.3754650297619  6.7578125 37.4924665178571  C 6.81857638888889 36.6094680059524  6.94010416666667 35.6565290178571  7.12239583333333 34.6336495535714  C 7.3046875 33.6107700892857  7.53472222222222 32.6622023809524  7.8125 31.7879464285714  C 8.09027777777778 30.9136904761905  8.46354166666667 30.061290922619  8.93229166666667 29.2307477678571  C 9.40104166666667 28.4002046130952  9.93923611111111 27.6920572916667  10.546875 27.1063058035714  C 11.1545138888889 26.5205543154762  11.8967013888889 26.0528273809524  12.7734375 25.703125  C 13.6501736111111 25.3534226190476  14.6180555555556 25.1785714285714  15.6770833333333 25.1785714285714  C 15.8506944444444 25.1785714285714  16.2239583333333 25.3665364583333  16.796875 25.7424665178571  C 17.3697916666667 26.118396577381  18.0034722222222 26.5380394345238  18.6979166666667 27.0013950892857  C 19.3923611111111 27.4647507440476  20.3211805555556 27.8843936011905  21.484375 28.2603236607143  C 22.6475694444444 28.6362537202381  23.8194444444444 28.82421875  25 28.82421875  C 26.1805555555556 28.82421875  27.3524305555556 28.6362537202381  28.515625 28.2603236607143  C 29.6788194444445 27.8843936011905  30.6076388888889 27.4647507440476  31.3020833333333 27.0013950892857  C 31.9965277777778 26.5380394345238  32.6302083333333 26.118396577381  33.203125 25.7424665178571  C 33.7760416666667 25.3665364583333  34.1493055555556 25.1785714285714  34.3229166666667 25.1785714285714  C 35.3819444444444 25.1785714285714  36.3498263888889 25.3534226190476  37.2265625 25.703125  C 38.1032986111111 26.0528273809524  38.8454861111111 26.5205543154762  39.453125 27.1063058035714  C 40.0607638888889 27.6920572916667  40.5989583333333 28.4002046130952  41.0677083333333 29.2307477678571  C 41.5364583333333 30.061290922619  41.9097222222222 30.9136904761905  42.1875 31.7879464285714  C 42.4652777777778 32.6622023809524  42.6953125 33.6107700892857  42.8776041666667 34.6336495535714  C 43.0598958333333 35.6565290178571  43.1814236111111 36.6094680059524  43.2421875 37.4924665178571  Z M 14.7135416666667 1.96707589285714  C 16.015625 3.27845982142857  16.6666666666667 4.86086309523809  16.6666666666667 6.71428571428572  C 16.6666666666667 8.56770833333333  16.015625 10.1501116071429  14.7135416666667 11.4614955357143  C 13.4114583333333 12.7728794642857  11.8402777777778 13.4285714285714  10 13.4285714285714  C 8.15972222222222 13.4285714285714  6.58854166666667 12.7728794642857  5.28645833333333 11.4614955357143  C 3.984375 10.1501116071429  3.33333333333333 8.56770833333333  3.33333333333333 6.71428571428572  C 3.33333333333333 4.86086309523809  3.984375 3.27845982142857  5.28645833333333 1.96707589285714  C 6.58854166666667 0.655691964285717  8.15972222222222 0  10 0  C 11.8402777777778 0  13.4114583333333 0.655691964285717  14.7135416666667 1.96707589285714  Z M 32.0703125 9.66489955357143  C 34.0234375 11.6319754464286  35 14.0055803571429  35 16.7857142857143  C 35 19.5658482142857  34.0234375 21.939453125  32.0703125 23.9065290178571  C 30.1171875 25.8736049107143  27.7604166666667 26.8571428571429  25 26.8571428571429  C 22.2395833333333 26.8571428571429  19.8828125 25.8736049107143  17.9296875 23.9065290178571  C 15.9765625 21.939453125  15 19.5658482142857  15 16.7857142857143  C 15 14.0055803571429  15.9765625 11.6319754464286  17.9296875 9.66489955357143  C 19.8828125 7.69782366071428  22.2395833333333 6.71428571428572  25 6.71428571428572  C 27.7604166666667 6.71428571428572  30.1171875 7.69782366071428  32.0703125 9.66489955357143  Z M 46.7708333333333 13.4285714285714  C 48.9236111111111 13.4285714285714  50 16.5146949404762  50 22.6869419642857  C 50 24.05078125  49.5138888888889 25.0867745535714  48.5416666666667 25.794921875  C 47.5694444444445 26.5030691964286  46.3715277777778 26.8571428571429  44.9479166666667 26.8571428571429  L 41.4583333333333 26.8571428571429  C 39.6701388888889 24.7064732142857  37.3697916666667 23.5874255952381  34.5572916666667 23.5  C 35.9635416666667 21.4542410714286  36.6666666666667 19.2161458333333  36.6666666666667 16.7857142857143  C 36.6666666666667 16.2786458333333  36.6232638888889 15.7016369047619  36.5364583333333 15.0546875  C 37.6822916666667 15.4568452380952  38.8368055555556 15.6579241071429  40 15.6579241071429  C 41.0243055555556 15.6579241071429  42.0572916666667 15.469959077381  43.0989583333333 15.0940290178571  C 44.140625 14.7180989583333  44.9869791666667 14.3465401785714  45.6380208333333 13.9793526785714  C 46.2890625 13.6121651785714  46.6666666666667 13.4285714285714  46.7708333333333 13.4285714285714  Z M 44.7135416666667 1.96707589285714  C 46.015625 3.27845982142857  46.6666666666667 4.86086309523809  46.6666666666667 6.71428571428572  C 46.6666666666667 8.56770833333333  46.015625 10.1501116071429  44.7135416666667 11.4614955357143  C 43.4114583333333 12.7728794642857  41.8402777777778 13.4285714285714  40 13.4285714285714  C 38.1597222222222 13.4285714285714  36.5885416666667 12.7728794642857  35.2864583333333 11.4614955357143  C 33.984375 10.1501116071429  33.3333333333333 8.56770833333333  33.3333333333333 6.71428571428572  C 33.3333333333333 4.86086309523809  33.984375 3.27845982142857  35.2864583333333 1.96707589285714  C 36.5885416666667 0.655691964285717  38.1597222222222 0  40 0  C 41.8402777777778 0  43.4114583333333 0.655691964285717  44.7135416666667 1.96707589285714  Z " fill-rule="nonzero" fill="#8080ff" stroke="none" fill-opacity="0.992156862745098" transform="matrix(1 0 0 1 279 301 )" />
  </g>
</svg>