<?xml version="1.0" encoding="utf-8"?>
<svg version="1.1" xmlns:xlink="http://www.w3.org/1999/xlink" width="50px" height="43px" xmlns="http://www.w3.org/2000/svg">
  <g transform="matrix(1 0 0 1 -448 -305 )">
    <path d="M 49.21875 29.4505208333333  C 49.7395833333333 29.9730902777778  50 30.6076388888889  50 31.3541666666667  L 50 40.3125  C 50 41.0590277777778  49.7395833333333 41.6935763888889  49.21875 42.2161458333333  C 48.6979166666667 42.7387152777778  48.0654761904762 43  47.3214285714286 43  L 38.3928571428571 43  C 37.6488095238095 43  37.0163690476191 42.7387152777778  36.4955357142857 42.2161458333333  C 35.9747023809524 41.6935763888889  35.7142857142857 41.0590277777778  35.7142857142857 40.3125  L 35.7142857142857 31.3541666666667  C 35.7142857142857 30.6076388888889  35.9747023809524 29.9730902777778  36.4955357142857 29.4505208333333  C 37.0163690476191 28.9279513888889  37.6488095238095 28.6666666666667  38.3928571428571 28.6666666666667  L 41.0714285714286 28.6666666666667  L 41.0714285714286 23  L 26.7857142857143 23  L 26.7857142857143 28.6666666666667  L 29.4642857142857 28.6666666666667  C 30.2083333333333 28.6666666666667  30.8407738095238 28.9279513888889  31.3616071428571 29.4505208333333  C 31.8824404761905 29.9730902777778  32.1428571428571 30.6076388888889  32.1428571428571 31.3541666666667  L 32.1428571428571 40.3125  C 32.1428571428571 41.0590277777778  31.8824404761905 41.6935763888889  31.3616071428571 42.2161458333333  C 30.8407738095238 42.7387152777778  30.2083333333333 43  29.4642857142857 43  L 20.5357142857143 43  C 19.7916666666667 43  19.1592261904762 42.7387152777778  18.6383928571429 42.2161458333333  C 18.1175595238095 41.6935763888889  17.8571428571429 41.0590277777778  17.8571428571429 40.3125  L 17.8571428571429 31.3541666666667  C 17.8571428571429 30.6076388888889  18.1175595238095 29.9730902777778  18.6383928571429 29.4505208333333  C 19.1592261904762 28.9279513888889  19.7916666666667 28.6666666666667  20.5357142857143 28.6666666666667  L 23.2142857142857 28.6666666666667  L 23.2142857142857 23  L 8.92857142857143 23  L 8.92857142857143 28.6666666666667  L 11.6071428571429 28.6666666666667  C 12.3511904761905 28.6666666666667  12.983630952381 28.9279513888889  13.5044642857143 29.4505208333333  C 14.0252976190476 29.9730902777778  14.2857142857143 30.6076388888889  14.2857142857143 31.3541666666667  L 14.2857142857143 40.3125  C 14.2857142857143 41.0590277777778  14.0252976190476 41.6935763888889  13.5044642857143 42.2161458333333  C 12.983630952381 42.7387152777778  12.3511904761905 43  11.6071428571429 43  L 2.67857142857143 43  C 1.93452380952381 43  1.30208333333333 42.7387152777778  0.78125 42.2161458333333  C 0.260416666666667 41.6935763888889  0 41.0590277777778  0 40.3125  L 0 31.3541666666667  C 0 30.6076388888889  0.260416666666667 29.9730902777778  0.78125 29.4505208333333  C 1.30208333333333 28.9279513888889  1.93452380952381 28.6666666666667  2.67857142857143 28.6666666666667  L 5.35714285714286 28.6666666666667  L 5.35714285714286 23.2916666666667  C 5.35714285714286 22.3211805555556  5.71056547619048 21.4813368055556  6.41741071428571 20.7721354166667  C 7.12425595238095 20.0629340277778  7.96130952380952 19.7083333333333  8.92857142857143 20  L 23.2142857142857 20  L 23.2142857142857 14.3333333333333  L 20.5357142857143 14.3333333333333  C 19.7916666666667 14.3333333333333  19.1592261904762 14.0720486111111  18.6383928571429 13.5494791666667  C 18.1175595238095 13.0269097222222  17.8571428571429 12.3923611111111  17.8571428571429 11.6458333333333  L 17.8571428571429 2.6875  C 17.8571428571429 1.94097222222222  18.1175595238095 1.30642361111111  18.6383928571429 0.783854166666665  C 19.1592261904762 0.26128472222222  19.7916666666667 0  20.5357142857143 0  L 29.4642857142857 0  C 30.2083333333333 0  30.8407738095238 0.26128472222222  31.3616071428571 0.783854166666665  C 31.8824404761905 1.30642361111111  32.1428571428571 1.94097222222222  32.1428571428571 2.6875  L 32.1428571428571 11.6458333333333  C 32.1428571428571 12.3923611111111  31.8824404761905 13.0269097222222  31.3616071428571 13.5494791666667  C 30.8407738095238 14.0720486111111  30.2083333333333 14.3333333333333  29.4642857142857 14.3333333333333  L 26.7857142857143 14.3333333333333  L 26.7857142857143 20  L 41.0714285714286 20  C 42.0386904761905 19.7083333333333  42.8757440476191 20.0629340277778  43.5825892857143 20.7721354166667  C 44.2894345238095 21.4813368055556  44.6428571428571 22.3211805555556  44.6428571428571 23.2916666666667  L 44.6428571428571 28.6666666666667  L 47.3214285714286 28.6666666666667  C 48.0654761904762 28.6666666666667  48.6979166666667 28.9279513888889  49.21875 29.4505208333333  Z " fill-rule="nonzero" fill="#74cac9" stroke="none" transform="matrix(1 0 0 1 448 305 )" />
  </g>
</svg>