<?xml version="1.0" encoding="utf-8"?>
<svg version="1.1" xmlns:xlink="http://www.w3.org/1999/xlink" width="50px" height="50px" xmlns="http://www.w3.org/2000/svg">
  <g transform="matrix(1 0 0 1 -99 -299 )">
    <path d="M 30.8919270833333 30.8919270833333  C 32.51953125 29.2643229166667  33.3333333333333 27.3003472222222  33.3333333333333 25  C 33.3333333333333 22.6996527777778  32.51953125 20.7356770833333  30.8919270833333 19.1080729166667  C 29.2643229166667 17.48046875  27.3003472222222 16.6666666666667  25 16.6666666666667  C 22.6996527777778 16.6666666666667  20.7356770833333 17.48046875  19.1080729166667 19.1080729166667  C 17.48046875 20.7356770833333  16.6666666666667 22.6996527777778  16.6666666666667 25  C 16.6666666666667 27.3003472222222  17.48046875 29.2643229166667  19.1080729166667 30.8919270833333  C 20.7356770833333 32.51953125  22.6996527777778 33.3333333333333  25 33.3333333333333  C 27.3003472222222 33.3333333333333  29.2643229166667 32.51953125  30.8919270833333 30.8919270833333  Z M 49.7395833333333 20.6868489583333  C 49.9131944444444 20.9147135416667  50 21.1697048611111  50 21.4518229166667  L 50 28.6783854166667  C 50 28.9388020833333  49.9131944444444 29.1883680555556  49.7395833333333 29.4270833333333  C 49.5659722222222 29.6657986111111  49.3489583333333 29.8068576388889  49.0885416666667 29.8502604166667  L 43.06640625 30.76171875  C 42.6540798611111 31.93359375  42.2309027777778 32.9210069444444  41.796875 33.7239583333333  C 42.5564236111111 34.8090277777778  43.7174479166667 36.3064236111111  45.2799479166667 38.2161458333333  C 45.4969618055556 38.4765625  45.60546875 38.7478298611111  45.60546875 39.0299479166667  C 45.60546875 39.3120659722222  45.5078125 39.5616319444444  45.3125 39.7786458333333  C 44.7265625 40.5815972222222  43.65234375 41.7534722222222  42.08984375 43.2942708333333  C 40.52734375 44.8350694444444  39.5073784722222 45.60546875  39.0299479166667 45.60546875  C 38.76953125 45.60546875  38.4874131944445 45.5078125  38.18359375 45.3125  L 33.69140625 41.796875  C 32.7365451388889 42.2960069444444  31.7491319444444 42.7083333333333  30.7291666666667 43.0338541666667  C 30.3819444444444 45.9852430555556  30.0672743055556 48.0034722222222  29.78515625 49.0885416666667  C 29.6332465277778 49.6961805555556  29.2426215277778 50  28.61328125 50  L 21.38671875 50  C 21.0828993055556 50  20.8170572916667 49.9077690972222  20.5891927083333 49.7233072916667  C 20.361328125 49.5388454861111  20.2365451388889 49.3055555555556  20.21484375 49.0234375  L 19.3033854166667 43.0338541666667  C 18.2400173611111 42.6866319444444  17.2634548611111 42.28515625  16.3736979166667 41.8294270833333  L 11.7838541666667 45.3125  C 11.5668402777778 45.5078125  11.2955729166667 45.60546875  10.9700520833333 45.60546875  C 10.6662326388889 45.60546875  10.3949652777778 45.4861111111111  10.15625 45.2473958333333  C 7.421875 42.7734375  5.63151041666667 40.9505208333333  4.78515625 39.7786458333333  C 4.63324652777778 39.5616319444444  4.55729166666667 39.3120659722222  4.55729166666667 39.0299479166667  C 4.55729166666667 38.76953125  4.64409722222222 38.5199652777778  4.81770833333333 38.28125  C 5.14322916666667 37.8255208333333  5.69661458333333 37.1039496527778  6.47786458333333 36.1165364583333  C 7.25911458333333 35.1291232638889  7.84505208333333 34.3641493055556  8.23567708333333 33.8216145833333  C 7.64973958333333 32.7365451388889  7.20486111111111 31.6623263888889  6.90104166666667 30.5989583333333  L 0.944010416666667 29.7200520833333  C 0.661892361111111 29.6766493055556  0.434027777777778 29.541015625  0.260416666666667 29.3131510416667  C 0.0868055555555556 29.0852864583333  0 28.8302951388889  0 28.5481770833333  L 0 21.3216145833333  C 0 21.0611979166667  0.0868055555555556 20.8116319444444  0.260416666666667 20.5729166666667  C 0.434027777777778 20.3342013888889  0.640190972222222 20.1931423611111  0.87890625 20.1497395833333  L 6.93359375 19.23828125  C 7.23741319444444 18.2400173611111  7.66059027777778 17.2417534722222  8.203125 16.2434895833333  C 7.33506944444444 15.0065104166667  6.17404513888889 13.5091145833333  4.72005208333333 11.7513020833333  C 4.50303819444444 11.4908854166667  4.39453125 11.23046875  4.39453125 10.9700520833333  C 4.39453125 10.7530381944444  4.4921875 10.5034722222222  4.6875 10.2213541666667  C 5.25173611111111 9.44010416666667  6.32052951388889 8.27365451388888  7.89388020833333 6.72200520833333  C 9.46723090277778 5.17035590277777  10.4926215277778 4.39453125  10.9700520833333 4.39453125  C 11.2521701388889 4.39453125  11.5342881944444 4.50303819444444  11.81640625 4.72005208333333  L 16.30859375 8.203125  C 17.2634548611111 7.70399305555555  18.2508680555556 7.29166666666667  19.2708333333333 6.96614583333333  C 19.6180555555556 4.01475694444444  19.9327256944444 1.99652777777777  20.21484375 0.911458333333331  C 20.3667534722222 0.303819444444442  20.7573784722222 0  21.38671875 0  L 28.61328125 0  C 28.9171006944444 0  29.1829427083333 0.0922309027777735  29.4108072916667 0.276692708333331  C 29.638671875 0.461154513888884  29.7634548611111 0.694444444444442  29.78515625 0.9765625  L 30.6966145833333 6.96614583333333  C 31.7599826388889 7.31336805555555  32.7365451388889 7.71484375  33.6263020833333 8.17057291666667  L 38.2486979166667 4.6875  C 38.4440104166667 4.4921875  38.7044270833333 4.39453125  39.0299479166667 4.39453125  C 39.3120659722222 4.39453125  39.5833333333333 4.50303819444444  39.84375 4.72005208333333  C 42.6432291666667 7.30251736111111  44.43359375 9.14713541666667  45.21484375 10.25390625  C 45.3667534722222 10.4275173611111  45.4427083333333 10.6662326388889  45.4427083333333 10.9700520833333  C 45.4427083333333 11.23046875  45.3559027777778 11.4800347222222  45.1822916666667 11.71875  C 44.8567708333333 12.1744791666667  44.3033854166667 12.8960503472222  43.5221354166667 13.8834635416667  C 42.7408854166667 14.8708767361111  42.1549479166667 15.6358506944444  41.7643229166667 16.1783854166667  C 42.3285590277778 17.2634548611111  42.7734375 18.3268229166667  43.0989583333333 19.3684895833333  L 49.0559895833333 20.2799479166667  C 49.3381076388889 20.3233506944444  49.5659722222222 20.458984375  49.7395833333333 20.6868489583333  Z " fill-rule="nonzero" fill="#eb008b" stroke="none" transform="matrix(1 0 0 1 99 299 )" />
  </g>
</svg>