<?xml version="1.0" encoding="utf-8"?>
<svg version="1.1" xmlns:xlink="http://www.w3.org/1999/xlink" width="50px" height="47px" xmlns="http://www.w3.org/2000/svg">
  <g transform="matrix(1 0 0 1 -627 -301 )">
    <path d="M 23.0540701128936 15.3517587939698  C 24.1632006337889 14.249581239531  24.7177658942365 12.9112227805695  24.7177658942365 11.3366834170854  C 24.7177658942365 9.76214405360134  24.1632006337889 8.42378559463987  23.0540701128936 7.32160804020101  C 21.9449395919984 6.21943048576214  20.5981382451971 5.66834170854271  19.0136660724896 5.66834170854271  C 17.4291938997821 5.66834170854271  16.0823925529808 6.21943048576214  14.9732620320856 7.32160804020101  C 13.8641315111903 8.42378559463987  13.3095662507427 9.76214405360134  13.3095662507427 11.3366834170854  C 13.3095662507427 12.1633165829146  13.4977223212517 12.9801088777219  13.8740344622698 13.7870603015075  C 13.0619924737572 13.4131072026801  12.2400475341652 13.2261306532663  11.4081996434938 13.2261306532663  C 9.8237274707863 13.2261306532663  8.47692612398495 13.7772194304858  7.36779560308972 14.8793969849246  C 6.2586650821945 15.9815745393635  5.70409982174688 17.319932998325  5.70409982174688 18.894472361809  C 5.70409982174688 20.4690117252931  6.2586650821945 21.8073701842546  7.36779560308972 22.9095477386935  C 8.47692612398495 24.0117252931323  9.8237274707863 24.5628140703518  11.4081996434938 24.5628140703518  C 12.9926718162012 24.5628140703518  14.3394731630026 24.0117252931323  15.4486036838978 22.9095477386935  C 16.557734204793 21.8073701842546  17.1122994652406 20.4690117252931  17.1122994652406 18.894472361809  C 17.1122994652406 18.0678391959799  16.9241433947316 17.2510469011725  16.5478312537136 16.4440954773869  C 17.3598732422262 16.8180485762144  18.1818181818182 17.0050251256281  19.0136660724896 17.0050251256281  C 20.5981382451971 17.0050251256281  21.9449395919984 16.4539363484087  23.0540701128936 15.3517587939698  Z M 49.1532976827094 30.910175879397  C 49.7177658942365 31.5596733668342  50 31.963149078727  50 32.1206030150754  C 50 32.4551926298157  49.5147553971083 33.1046901172529  48.544266191325 34.0690954773869  C 47.5737769855417 35.0335008375209  46.9201822142999 35.5157035175879  46.5834818775995 35.5157035175879  C 46.4052287581699 35.5157035175879  46.1229946524064 35.3582495812395  45.736779560309 35.0433417085427  C 45.3505644682115 34.7284338358459  44.9891067538126 34.4036850921273  44.6524064171123 34.0690954773869  C 44.315706080412 33.7345058626466  43.9344424638542 33.3408710217755  43.5086155674391 32.8881909547739  C 43.082788671024 32.4355108877722  42.8401663695781 32.179648241206  42.7807486631016 32.1206030150754  L 39.9286987522282 34.9547738693467  L 46.4646464646465 41.4497487437186  C 47.0192117250941 42.000837520938  47.2964943553179 42.6700167504188  47.2964943553179 43.4572864321608  C 47.2964943553179 44.28391959799  46.9102792632204 45.0810301507538  46.1378490790256 45.8486180904523  C 45.3654188948307 46.6162060301508  44.5632798573975 47  43.7314319667261 47  C 42.9391958803724 47  42.2657952069717 46.7244556113903  41.7112299465241 46.1733668341709  L 21.7765894236482 26.3636934673367  C 18.2907506436918 28.9420016750419  14.6761734997029 30.2311557788945  10.9328579916815 30.2311557788945  C 7.70449593979006 30.2311557788945  5.07526242820361 29.2224664991625  3.04515745692216 27.2050879396985  C 1.01505248564072 25.1877093802345  0 22.5749581239531  0 19.3668341708543  C 0 16.2177554438861  0.940780352545059 13.1375628140704  2.82234105763518 10.126256281407  C 4.70390176272529 7.11494974874372  7.15983363042187 4.67441373534338  10.1901366607249 2.80464824120603  C 13.2204396910279 0.934882747068674  16.3200633788869 0  19.4890077243018 0  C 22.7173697761933 0  25.3466032877798 1.00868927973199  27.3767082590612 3.02606783919598  C 29.4068132303426 5.04344639865996  30.4218657159834 7.65619765494137  30.4218657159834 10.8643216080402  C 30.4218657159834 14.5841708542714  29.1245791245791 18.1760887772194  26.5300059417706 21.6400753768844  L 37.0766488413547 32.1206030150754  L 39.9286987522282 29.286432160804  C 39.8692810457516 29.2273869346734  39.6118043176867 28.9862855946399  39.1562685680333 28.5631281407035  C 38.7007328183799 28.1399706867672  38.304614775203 27.7610971524288  37.9679144385027 27.4265075376884  C 37.6312141018023 27.0919179229481  37.3044167161814 26.7327261306533  36.9875222816399 26.348932160804  C 36.6706278470984 25.9651381909548  36.5121806298277 25.6846733668342  36.5121806298277 25.5075376884422  C 36.5121806298277 25.1729480737018  36.9974252327194 24.5234505862647  37.9679144385027 23.5590452261307  C 38.938403644286 22.5946398659966  39.5919984155278 22.1124371859296  39.9286987522282 22.1124371859296  C 40.1861754802931 22.1124371859296  40.4139433551198 22.2108458961474  40.6120023767083 22.4076633165829  C 40.7308377896613 22.5257537688442  41.1863735393147 22.9636725293132  41.9786096256684 23.72141959799  C 42.7708457120222 24.4791666666667  43.5828877005348 25.2615159128978  44.4147355912062 26.0684673366834  C 45.2465834818776 26.875418760469  46.1031887502476 27.7217336683417  46.9845513963161 28.6074120603015  C 47.8659140423846 29.4930904522613  48.5888294711824 30.2606783919598  49.1532976827094 30.910175879397  Z " fill-rule="nonzero" fill="#eb008b" stroke="none" transform="matrix(1 0 0 1 627 301 )" />
  </g>
</svg>